<svg
    width="500"
    height="500"
    viewBox="500 0 500 500"
    fill="none"
    xmlns="http://www.w3.org/2000/svg"
>

    <path fill="#ffffff"
          d="M 78.660156 399.191406 L 78.660156 415.441406 L 64.582031 407.320312 L 64.582031 391.066406 L 78.660156 399.191406 "/>

    <path fill="#ffffff"
          d="M 97.015625 391.066406 L 97.015625 407.320312 L 82.941406 415.441406 L 82.941406 399.191406 L 97.015625 391.066406 "/>
    <path fill="#ffffff"
          d="M 94.875 387.355469 L 80.796875 395.484375 L 66.722656 387.355469 L 80.796875 379.230469 L 94.875 387.355469 "/>
    <path fill="#ffffff"
          d="M 125.589844 399.191406 L 125.589844 415.441406 L 111.515625 407.320312 L 111.515625 391.066406 L 125.589844 399.191406 "/>

    <path fill="#ffffff"
          d="M 143.945312 391.066406 L 143.945312 407.320312 L 129.871094 415.441406 L 129.871094 399.191406 L 143.945312 391.066406 "/>

    <path fill="#ffffff"
          d="M 141.808594 387.355469 L 127.730469 395.484375 L 113.65625 387.355469 L 127.730469 379.230469 L 141.808594 387.355469 "/>
    <path fill="#ffffff"
          d="M 102.121094 358.621094 L 102.121094 374.871094 L 88.046875 366.75 L 88.046875 350.496094 L 102.121094 358.621094 "/>
    <path fill="#ffffff"
          d="M 120.484375 350.496094 L 120.484375 366.75 L 106.40625 374.871094 L 106.40625 358.621094 L 120.484375 350.496094 "/>

    <path fill="#ffffff"
          d="M 118.339844 346.785156 L 104.265625 354.914062 L 90.191406 346.785156 L 104.265625 338.664062 L 118.339844 346.785156 "/>
    <path fill="#ffffff"
          d="M 76.640625 375.335938 L 76.640625 368.285156 L 82.554688 364.871094 L 82.554688 358.652344 L 72.601562 364.394531 C 71.769531 364.878906 71.253906 365.769531 71.253906 366.730469 L 71.253906 378.441406 L 76.640625 375.335938 "/>
    <path fill="#ffffff"
          d="M 125.976562 364.871094 L 131.886719 368.285156 L 131.886719 375.335938 L 137.273438 378.441406 L 137.273438 366.730469 C 137.273438 365.769531 136.761719 364.878906 135.929688 364.394531 L 125.976562 358.652344 L 125.976562 364.871094 "/>

    <path fill="#ffffff"
          d="M 109.984375 412.828125 L 104.265625 416.128906 L 98.546875 412.828125 L 93.160156 415.9375 L 102.921875 421.570312 C 103.335938 421.8125 103.800781 421.929688 104.265625 421.929688 C 104.730469 421.929688 105.195312 421.8125 105.609375 421.570312 L 115.371094 415.9375 L 109.984375 412.828125 "/>


    <path fill="#ffffff"
          d="M 42.503906 377.300781 C 40.371094 370.195312 38.730469 362.789062 37.625 355.25 C 42.832031 354.480469 48.851562 352.824219 55.550781 350.324219 C 62.84375 347.597656 71.0625 343.839844 79.980469 339.148438 C 90.609375 333.5625 99.816406 327.898438 104.226562 325.109375 C 104.234375 325.113281 104.242188 325.117188 104.25 325.125 C 104.257812 325.117188 104.265625 325.113281 104.273438 325.109375 C 108.683594 327.898438 117.890625 333.5625 128.515625 339.148438 C 137.433594 343.839844 145.652344 347.597656 152.945312 350.324219 C 159.648438 352.824219 165.664062 354.480469 170.875 355.25 C 169.769531 362.789062 168.128906 370.195312 165.996094 377.300781 C 163.699219 384.957031 160.765625 392.453125 157.28125 399.601562 C 177.273438 377.933594 182.945312 345.503906 182.945312 345.503906 L 176.992188 345.433594 C 167.558594 345.324219 152.621094 340.035156 133.789062 330.136719 C 119.207031 322.472656 107.472656 314.722656 107.359375 314.644531 L 104.273438 312.601562 L 104.25 312.617188 L 104.226562 312.601562 L 101.140625 314.644531 C 101.023438 314.722656 89.292969 322.472656 74.710938 330.136719 C 55.878906 340.035156 40.9375 345.324219 31.503906 345.433594 L 25.554688 345.503906 C 25.554688 345.503906 31.226562 377.933594 51.214844 399.601562 C 47.734375 392.453125 44.800781 384.957031 42.503906 377.300781 "/>

    <path fill="#ffffff"
          d="M 104.273438 460.058594 C 104.265625 460.054688 104.257812 460.050781 104.25 460.042969 C 104.242188 460.050781 104.234375 460.054688 104.226562 460.058594 C 70.125 438.207031 41.015625 394.34375 35.445312 385.945312 C 37.347656 391.375 39.515625 396.699219 41.917969 401.859375 C 48.535156 416.074219 57.066406 429.316406 67.269531 441.230469 C 76.355469 451.835938 85.125 459.40625 90.878906 463.890625 C 97.210938 468.824219 101.402344 471.230469 101.582031 471.332031 L 104.226562 472.84375 L 104.25 472.828125 L 104.273438 472.84375 L 106.917969 471.332031 C 107.09375 471.230469 111.285156 468.824219 117.621094 463.890625 C 123.375 459.40625 132.144531 451.835938 141.226562 441.230469 C 151.433594 429.316406 159.960938 416.074219 166.582031 401.859375 C 168.984375 396.699219 171.148438 391.375 173.054688 385.945312 C 167.480469 394.34375 138.375 438.207031 104.273438 460.058594 "/>
    <g fill="#ffffff">
        <g transform="translate(212.671868, 391.5)">
            <g>
                <path
                    d="M 12.265625 0.289062 C 26.496094 0.289062 26.496094 -21.03125 12.265625 -21.03125 C -1.96875 -21.03125 -1.96875 0.289062 12.265625 0.289062 Z M 12.265625 -3.992188 C 3.992188 -3.992188 3.992188 -16.777344 12.265625 -16.777344 C 20.539062 -16.777344 20.539062 -3.992188 12.265625 -3.992188 Z M 12.265625 -3.992188 "/>
            </g>
        </g>
    </g>
    <g fill="#ffffff">
        <g transform="translate(237.168724, 391.5)">
            <g>
                <path
                    d="M 12.613281 0 L 17.296875 0 L 12.496094 -8.535156 C 18.570312 -10.296875 17.847656 -20.683594 10.472656 -20.683594 L 2.3125 -20.683594 L 2.3125 0 L 6.449219 0 L 6.449219 -7.898438 L 8.445312 -7.898438 Z M 6.449219 -11.917969 L 6.449219 -16.546875 L 10.09375 -16.546875 C 12.902344 -16.546875 12.902344 -11.917969 10.09375 -11.917969 Z M 6.449219 -11.917969 "/>
            </g>
        </g>
    </g>
    <g fill="#ffffff">
        <g transform="translate(254.897853, 391.5)">
            <g>
                <path
                    d="M 17.242188 -1.273438 L 17.242188 -10.355469 L 13.046875 -10.355469 L 13.046875 -4.136719 C 12.671875 -4.078125 12.265625 -4.019531 11.890625 -4.019531 C 3.90625 -4.019531 3.527344 -16.371094 11.890625 -16.664062 C 14.085938 -16.71875 15.417969 -16.257812 16.226562 -15.910156 L 16.71875 -20.105469 C 16.34375 -20.21875 14.347656 -20.945312 11.890625 -20.855469 C -2.457031 -20.335938 -1.765625 0.117188 11.890625 0.117188 C 13.855469 0.117188 15.648438 -0.375 17.242188 -1.273438 Z M 17.242188 -1.273438 "/>
            </g>
        </g>
    </g>
    <g fill="#ffffff">
        <g transform="translate(274.362295, 391.5)">
            <g>
                <path
                    d="M 0.460938 0 L 5.148438 0 L 5.960938 -2.226562 L 12.816406 -2.226562 L 13.652344 0 L 18.3125 0 L 9.605469 -21.433594 L 9.171875 -21.433594 Z M 7.464844 -6.105469 L 9.402344 -11.484375 L 11.28125 -6.105469 Z M 7.464844 -6.105469 "/>
            </g>
        </g>
    </g>
    <g fill="#ffffff">
        <g transform="translate(293.248295, 391.5)">
            <g>
                <path
                    d="M 6.449219 -11.253906 L 16.921875 0.433594 L 18.023438 0.433594 L 18.023438 -20.652344 L 13.855469 -20.652344 L 13.855469 -8.96875 L 3.414062 -21.117188 L 2.3125 -21.117188 L 2.3125 0 L 6.449219 0 Z M 6.449219 -11.253906 "/>
            </g>
        </g>
    </g>
    <g fill="#ffffff">
        <g transform="translate(313.609314, 391.5)">
            <g>
                <path d="M 6.449219 0 L 6.449219 -20.683594 L 2.3125 -20.683594 L 2.3125 0 Z M 6.449219 0 "/>
            </g>
        </g>
    </g>
    <g fill="#ffffff">
        <g transform="translate(322.401569, 391.5)">
            <g>
                <path
                    d="M 1.359375 -1.332031 C 4.164062 0.117188 6.738281 0.261719 7.898438 0.171875 C 11.773438 -0.0273438 14.144531 -2.660156 14.144531 -6.105469 C 14.144531 -9.402344 11.367188 -11.253906 8.15625 -12.4375 C 6.972656 -12.84375 5.960938 -13.363281 5.84375 -14.523438 C 5.757812 -15.679688 6.421875 -16.75 7.898438 -16.835938 C 8.535156 -16.863281 9.835938 -16.894531 12.121094 -15.96875 L 12.640625 -19.960938 C 9.980469 -20.886719 8.5625 -20.886719 7.492188 -20.828125 C 4.050781 -20.652344 1.648438 -17.992188 1.648438 -14.523438 C 1.648438 -11.050781 4.542969 -9.402344 7.78125 -8.214844 C 8.9375 -7.808594 9.835938 -7.289062 9.921875 -6.105469 C 10.039062 -4.976562 8.996094 -4.109375 7.78125 -4.019531 C 6.828125 -3.933594 4.253906 -3.992188 1.878906 -5.667969 Z M 1.359375 -1.332031 "/>
            </g>
        </g>
    </g>
    <g fill="#ffffff">
        <g transform="translate(337.701254, 391.5)">
            <g>
                <path
                    d="M 11.800781 -11.917969 L 3.644531 -21 L 2.3125 -21 L 2.3125 0 L 6.507812 0 L 6.507812 -11.542969 L 11.800781 -5.988281 L 17.097656 -11.542969 L 17.066406 0 L 21.261719 0 L 21.261719 -21 L 19.960938 -21 Z M 11.800781 -11.917969 "/>
            </g>
        </g>
    </g>
    <g fill="#ffffff">
        <g transform="translate(361.301523, 391.5)">
            <g>
                <path
                    d="M 13.015625 0 L 13.015625 -4.136719 L 6.449219 -4.136719 L 6.449219 -8.273438 L 11.890625 -8.273438 L 11.890625 -12.410156 L 6.449219 -12.410156 L 6.449219 -16.546875 L 12.671875 -16.546875 L 12.671875 -20.683594 L 2.3125 -20.683594 L 2.3125 0 Z M 13.015625 0 "/>
            </g>
        </g>
    </g>
    <g fill="#ffffff">
        <g transform="translate(375.878159, 391.5)">
            <g/>
        </g>
    </g>
    <g fill="#ffffff">
        <g transform="translate(384.091984, 391.5)">
            <g>
                <path
                    d="M 8.476562 -20.683594 L 2.3125 -20.683594 L 2.3125 0 L 8.476562 0 C 22.246094 0 22.246094 -20.683594 8.476562 -20.683594 Z M 8.476562 -16.546875 C 16.519531 -16.546875 16.519531 -4.136719 8.476562 -4.136719 L 6.449219 -4.136719 L 6.449219 -16.546875 Z M 8.476562 -16.546875 "/>
            </g>
        </g>
    </g>
    <g fill="#ffffff">
        <g transform="translate(404.453002, 391.5)">
            <g>
                <path
                    d="M 13.015625 0 L 13.015625 -4.136719 L 6.449219 -4.136719 L 6.449219 -8.273438 L 11.890625 -8.273438 L 11.890625 -12.410156 L 6.449219 -12.410156 L 6.449219 -16.546875 L 12.671875 -16.546875 L 12.671875 -20.683594 L 2.3125 -20.683594 L 2.3125 0 Z M 13.015625 0 "/>
            </g>
        </g>
    </g>
    <g fill="#ffffff">
        <g transform="translate(419.029639, 391.5)">
            <g/>
        </g>
    </g>
    <g fill="#ffffff">
        <g transform="translate(427.243452, 391.5)">
            <g>
                <path
                    d="M 8.476562 -20.683594 L 2.3125 -20.683594 L 2.3125 0 L 8.476562 0 C 22.246094 0 22.246094 -20.683594 8.476562 -20.683594 Z M 8.476562 -16.546875 C 16.519531 -16.546875 16.519531 -4.136719 8.476562 -4.136719 L 6.449219 -4.136719 L 6.449219 -16.546875 Z M 8.476562 -16.546875 "/>
            </g>
        </g>
    </g>
    <g fill="#ffffff">
        <g transform="translate(447.604458, 391.5)">
            <g>
                <path
                    d="M 11.945312 -25.425781 L 6.855469 -25.425781 L 5.4375 -22.101562 L 9.171875 -22.101562 Z M 13.015625 0 L 13.015625 -4.136719 L 6.449219 -4.136719 L 6.449219 -8.273438 L 11.890625 -8.273438 L 11.890625 -12.410156 L 6.449219 -12.410156 L 6.449219 -16.546875 L 12.671875 -16.546875 L 12.671875 -20.683594 L 2.3125 -20.683594 L 2.3125 0 Z M 13.015625 0 "/>
            </g>
        </g>
    </g>
    <g fill="#ffffff">
        <g transform="translate(462.181095, 391.5)">
            <g>
                <path
                    d="M 15.476562 -15.882812 L 15.96875 -20.132812 C 14.722656 -20.683594 13.335938 -20.945312 11.890625 -20.945312 C -2.113281 -20.945312 -2.140625 0.0585938 11.890625 0.0585938 C 13.335938 0.0585938 15.15625 -0.289062 16.429688 -0.808594 L 15.882812 -5.089844 C 15.101562 -4.6875 13.683594 -4.164062 11.890625 -4.164062 C 3.703125 -4.164062 3.703125 -16.777344 11.890625 -16.777344 C 13.683594 -16.777344 14.695312 -16.285156 15.476562 -15.882812 Z M 15.476562 -15.882812 "/>
            </g>
        </g>
    </g>
    <g fill="#ffffff">
        <g transform="translate(479.592066, 391.5)">
            <g>
                <path
                    d="M 13.015625 0 L 13.015625 -4.136719 L 6.449219 -4.136719 L 6.449219 -8.273438 L 11.890625 -8.273438 L 11.890625 -12.410156 L 6.449219 -12.410156 L 6.449219 -16.546875 L 12.671875 -16.546875 L 12.671875 -20.683594 L 2.3125 -20.683594 L 2.3125 0 Z M 13.015625 0 "/>
            </g>
        </g>
    </g>
    <g fill="#ffffff">
        <g transform="translate(494.168703, 391.5)">
            <g>
                <path
                    d="M 6.449219 -11.253906 L 16.921875 0.433594 L 18.023438 0.433594 L 18.023438 -20.652344 L 13.855469 -20.652344 L 13.855469 -8.96875 L 3.414062 -21.117188 L 2.3125 -21.117188 L 2.3125 0 L 6.449219 0 Z M 6.449219 -11.253906 "/>
            </g>
        </g>
    </g>
    <g fill="#ffffff">
        <g transform="translate(514.529732, 391.5)">
            <g>
                <path
                    d="M 9.863281 0 L 9.863281 -16.546875 L 15.011719 -16.546875 L 15.011719 -20.652344 L 0.578125 -20.652344 L 0.578125 -16.546875 L 5.726562 -16.546875 L 5.726562 0 Z M 9.863281 0 "/>
            </g>
        </g>
    </g>
    <g fill="#ffffff">
        <g transform="translate(530.349998, 391.5)">
            <g>
                <path
                    d="M 12.613281 0 L 17.296875 0 L 12.496094 -8.535156 C 18.570312 -10.296875 17.847656 -20.683594 10.472656 -20.683594 L 2.3125 -20.683594 L 2.3125 0 L 6.449219 0 L 6.449219 -7.898438 L 8.445312 -7.898438 Z M 6.449219 -11.917969 L 6.449219 -16.546875 L 10.09375 -16.546875 C 12.902344 -16.546875 12.902344 -11.917969 10.09375 -11.917969 Z M 6.449219 -11.917969 "/>
            </g>
        </g>
    </g>
    <g fill="#ffffff">
        <g transform="translate(548.079139, 391.5)">
            <g>
                <path
                    d="M 0.460938 0 L 5.148438 0 L 5.960938 -2.226562 L 12.816406 -2.226562 L 13.652344 0 L 18.3125 0 L 9.605469 -21.433594 L 9.171875 -21.433594 Z M 7.464844 -6.105469 L 9.402344 -11.484375 L 11.28125 -6.105469 Z M 7.464844 -6.105469 "/>
            </g>
        </g>
    </g>
    <g fill="#ffffff">
        <g transform="translate(566.965139, 391.5)">
            <g>
                <path
                    d="M 2.3125 -20.683594 L 2.3125 0 L 13.015625 0 L 13.015625 -4.136719 L 6.449219 -4.136719 L 6.449219 -20.683594 Z M 2.3125 -20.683594 "/>
            </g>
        </g>
    </g>
    <g fill="#ffffff">
        <g transform="translate(581.223653, 391.5)">
            <g>
                <path d="M 6.449219 0 L 6.449219 -20.683594 L 2.3125 -20.683594 L 2.3125 0 Z M 6.449219 0 "/>
            </g>
        </g>
    </g>
    <g fill="#ffffff">
        <g transform="translate(590.015919, 391.5)">
            <g>
                <path
                    d="M 1.359375 -1.332031 C 4.164062 0.117188 6.738281 0.261719 7.898438 0.171875 C 11.773438 -0.0273438 14.144531 -2.660156 14.144531 -6.105469 C 14.144531 -9.402344 11.367188 -11.253906 8.15625 -12.4375 C 6.972656 -12.84375 5.960938 -13.363281 5.84375 -14.523438 C 5.757812 -15.679688 6.421875 -16.75 7.898438 -16.835938 C 8.535156 -16.863281 9.835938 -16.894531 12.121094 -15.96875 L 12.640625 -19.960938 C 9.980469 -20.886719 8.5625 -20.886719 7.492188 -20.828125 C 4.050781 -20.652344 1.648438 -17.992188 1.648438 -14.523438 C 1.648438 -11.050781 4.542969 -9.402344 7.78125 -8.214844 C 8.9375 -7.808594 9.835938 -7.289062 9.921875 -6.105469 C 10.039062 -4.976562 8.996094 -4.109375 7.78125 -4.019531 C 6.828125 -3.933594 4.253906 -3.992188 1.878906 -5.667969 Z M 1.359375 -1.332031 "/>
            </g>
        </g>
    </g>
    <g fill="#ffffff">
        <g transform="translate(605.315616, 391.5)">
            <g>
                <path
                    d="M 0.460938 0 L 5.148438 0 L 5.960938 -2.226562 L 12.816406 -2.226562 L 13.652344 0 L 18.3125 0 L 9.605469 -21.433594 L 9.171875 -21.433594 Z M 7.464844 -6.105469 L 9.402344 -11.484375 L 11.28125 -6.105469 Z M 7.464844 -6.105469 "/>
            </g>
        </g>
    </g>
    <g fill="#ffffff">
        <g transform="translate(624.201617, 391.5)">
            <g>
                <path
                    d="M 9.863281 0 L 9.863281 -16.546875 L 15.011719 -16.546875 L 15.011719 -20.652344 L 0.578125 -20.652344 L 0.578125 -16.546875 L 5.726562 -16.546875 L 5.726562 0 Z M 9.863281 0 "/>
            </g>
        </g>
    </g>
    <g fill="#ffffff">
        <g transform="translate(640.021883, 391.5)">
            <g>
                <path d="M 6.449219 0 L 6.449219 -20.683594 L 2.3125 -20.683594 L 2.3125 0 Z M 6.449219 0 "/>
            </g>
        </g>
    </g>
    <g fill="#ffffff">
        <g transform="translate(648.814149, 391.5)">
            <g>
                <path
                    d="M 12.265625 0.289062 C 26.496094 0.289062 26.496094 -21.03125 12.265625 -21.03125 C -1.96875 -21.03125 -1.96875 0.289062 12.265625 0.289062 Z M 12.265625 -3.992188 C 3.992188 -3.992188 3.992188 -16.777344 12.265625 -16.777344 C 20.539062 -16.777344 20.539062 -3.992188 12.265625 -3.992188 Z M 12.265625 -3.992188 "/>
            </g>
        </g>
    </g>
    <g fill="#ffffff">
        <g transform="translate(673.311005, 391.5)">
            <g>
                <path
                    d="M 6.449219 -11.253906 L 16.921875 0.433594 L 18.023438 0.433594 L 18.023438 -20.652344 L 13.855469 -20.652344 L 13.855469 -8.96875 L 3.414062 -21.117188 L 2.3125 -21.117188 L 2.3125 0 L 6.449219 0 Z M 6.449219 -11.253906 "/>
            </g>
        </g>
    </g>
    <g fill="#ffffff">
        <g transform="translate(693.679656, 391.5)">
            <g/>
        </g>
    </g>
    <g fill="#ffffff">
        <g transform="translate(212.624993, 431.999998)">
            <g>
                <path
                    d="M 11.800781 -11.917969 L 3.644531 -21 L 2.3125 -21 L 2.3125 0 L 6.507812 0 L 6.507812 -11.542969 L 11.800781 -5.988281 L 17.097656 -11.542969 L 17.066406 0 L 21.261719 0 L 21.261719 -21 L 19.960938 -21 Z M 11.800781 -11.917969 "/>
            </g>
        </g>
    </g>
    <g fill="#ffffff">
        <g transform="translate(236.225261, 431.999998)">
            <g>
                <path
                    d="M 12.265625 0.289062 C 26.496094 0.289062 26.496094 -21.03125 12.265625 -21.03125 C -1.96875 -21.03125 -1.96875 0.289062 12.265625 0.289062 Z M 12.265625 -3.992188 C 3.992188 -3.992188 3.992188 -16.777344 12.265625 -16.777344 C 20.539062 -16.777344 20.539062 -3.992188 12.265625 -3.992188 Z M 12.265625 -3.992188 "/>
            </g>
        </g>
    </g>
    <g fill="#ffffff">
        <g transform="translate(260.722117, 431.999998)">
            <g>
                <path
                    d="M 6.449219 -11.253906 L 16.921875 0.433594 L 18.023438 0.433594 L 18.023438 -20.652344 L 13.855469 -20.652344 L 13.855469 -8.96875 L 3.414062 -21.117188 L 2.3125 -21.117188 L 2.3125 0 L 6.449219 0 Z M 6.449219 -11.253906 "/>
            </g>
        </g>
    </g>
    <g fill="#ffffff">
        <g transform="translate(281.083135, 431.999998)">
            <g>
                <path
                    d="M 8.476562 -20.683594 L 2.3125 -20.683594 L 2.3125 0 L 8.476562 0 C 22.246094 0 22.246094 -20.683594 8.476562 -20.683594 Z M 8.476562 -16.546875 C 16.519531 -16.546875 16.519531 -4.136719 8.476562 -4.136719 L 6.449219 -4.136719 L 6.449219 -16.546875 Z M 8.476562 -16.546875 "/>
            </g>
        </g>
    </g>
    <g fill="#ffffff">
        <g transform="translate(301.444154, 431.999998)">
            <g>
                <path d="M 6.449219 0 L 6.449219 -20.683594 L 2.3125 -20.683594 L 2.3125 0 Z M 6.449219 0 "/>
            </g>
        </g>
    </g>
    <g fill="#ffffff">
        <g transform="translate(310.236409, 431.999998)">
            <g>
                <path
                    d="M 0.460938 0 L 5.148438 0 L 5.960938 -2.226562 L 12.816406 -2.226562 L 13.652344 0 L 18.3125 0 L 9.605469 -21.433594 L 9.171875 -21.433594 Z M 7.464844 -6.105469 L 9.402344 -11.484375 L 11.28125 -6.105469 Z M 7.464844 -6.105469 "/>
            </g>
        </g>
    </g>
    <g fill="#ffffff">
        <g transform="translate(329.122409, 431.999998)">
            <g>
                <path
                    d="M 2.3125 -20.683594 L 2.3125 0 L 13.015625 0 L 13.015625 -4.136719 L 6.449219 -4.136719 L 6.449219 -20.683594 Z M 2.3125 -20.683594 "/>
            </g>
        </g>
    </g>
    <g fill="#ffffff">
        <g transform="translate(343.380911, 431.999998)">
            <g>
                <path
                    d="M 13.015625 0 L 13.015625 -4.136719 L 6.449219 -4.136719 L 6.449219 -8.273438 L 11.890625 -8.273438 L 11.890625 -12.410156 L 6.449219 -12.410156 L 6.449219 -16.546875 L 12.671875 -16.546875 L 12.671875 -20.683594 L 2.3125 -20.683594 L 2.3125 0 Z M 13.015625 0 "/>
            </g>
        </g>
    </g>
</svg>
