<svg xmlns="http://www.w3.org/2000/svg" xmlns:xlink="http://www.w3.org/1999/xlink" width="1024" zoomAndPan="magnify" viewBox="0 0 768 767.999994" height="1024" preserveAspectRatio="xMidYMid meet" version="1.0"><defs><clipPath id="de75817cd0"><path d="M 237.886719 423 L 290 423 L 290 514 L 237.886719 514 Z M 237.886719 423 " clip-rule="nonzero"/></clipPath><clipPath id="6a0a9d329e"><path d="M 478 423 L 530.234375 423 L 530.234375 514 L 478 514 Z M 478 423 " clip-rule="nonzero"/></clipPath><clipPath id="4b087766c0"><path d="M 332 230.398438 L 436 230.398438 L 436 291 L 332 291 Z M 332 230.398438 " clip-rule="nonzero"/></clipPath><clipPath id="fe227a4eec"><path d="M 343 503 L 425 503 L 425 537.371094 L 343 537.371094 Z M 343 503 " clip-rule="nonzero"/></clipPath><clipPath id="c5db8c4e83"><path d="M 94.128906 134.316406 L 673.878906 134.316406 L 673.878906 456 L 94.128906 456 Z M 94.128906 134.316406 " clip-rule="nonzero"/></clipPath></defs><g clip-path="url(#de75817cd0)"><path fill="#ff9f1c" d="M 289.734375 453.605469 L 289.734375 513.46875 L 237.886719 483.546875 L 237.886719 423.683594 L 289.734375 453.605469 " fill-opacity="1" fill-rule="nonzero"/></g><path fill="#ff9f1c" d="M 357.351562 423.683594 L 357.351562 483.546875 L 305.507812 513.46875 L 305.507812 453.605469 L 357.351562 423.683594 " fill-opacity="1" fill-rule="nonzero"/><path fill="#ff9f1c" d="M 349.46875 410.011719 L 297.617188 439.957031 L 245.769531 410.011719 L 297.617188 380.089844 L 349.46875 410.011719 " fill-opacity="1" fill-rule="nonzero"/><path fill="#ff9f1c" d="M 462.601562 453.605469 L 462.601562 513.46875 L 410.757812 483.546875 L 410.757812 423.683594 L 462.601562 453.605469 " fill-opacity="1" fill-rule="nonzero"/><g clip-path="url(#6a0a9d329e)"><path fill="#ff9f1c" d="M 530.222656 423.683594 L 530.222656 483.546875 L 478.378906 513.46875 L 478.378906 453.605469 L 530.222656 423.683594 " fill-opacity="1" fill-rule="nonzero"/></g><path fill="#ff9f1c" d="M 522.339844 410.011719 L 470.496094 439.957031 L 418.640625 410.011719 L 470.496094 380.089844 L 522.339844 410.011719 " fill-opacity="1" fill-rule="nonzero"/><path fill="#ff9f1c" d="M 376.164062 304.167969 L 376.164062 364.03125 L 324.320312 334.109375 L 324.320312 274.246094 L 376.164062 304.167969 " fill-opacity="1" fill-rule="nonzero"/><path fill="#ff9f1c" d="M 443.792969 274.246094 L 443.792969 334.109375 L 391.9375 364.03125 L 391.9375 304.167969 L 443.792969 274.246094 " fill-opacity="1" fill-rule="nonzero"/><g clip-path="url(#4b087766c0)"><path fill="#ff9f1c" d="M 435.902344 260.578125 L 384.054688 290.519531 L 332.210938 260.578125 L 384.054688 230.65625 L 435.902344 260.578125 " fill-opacity="1" fill-rule="nonzero"/></g><path fill="#ff9f1c" d="M 282.308594 365.738281 L 282.308594 339.769531 L 304.085938 327.191406 L 304.085938 304.285156 L 267.429688 325.445312 C 264.355469 327.222656 262.464844 330.5 262.464844 334.042969 L 262.464844 377.183594 L 282.308594 365.738281 " fill-opacity="1" fill-rule="nonzero"/><path fill="#ff9f1c" d="M 464.027344 327.191406 L 485.804688 339.769531 L 485.804688 365.738281 L 505.636719 377.183594 L 505.636719 334.042969 C 505.636719 330.5 503.753906 327.222656 500.683594 325.445312 L 464.027344 304.285156 L 464.027344 327.191406 " fill-opacity="1" fill-rule="nonzero"/><g clip-path="url(#fe227a4eec)"><path fill="#ff9f1c" d="M 405.121094 503.839844 L 384.054688 516.003906 L 362.992188 503.839844 L 343.148438 515.292969 L 379.101562 536.042969 C 380.632812 536.933594 382.339844 537.371094 384.054688 537.371094 C 385.773438 537.371094 387.480469 536.933594 389.011719 536.042969 L 424.964844 515.292969 L 405.121094 503.839844 " fill-opacity="1" fill-rule="nonzero"/></g><g clip-path="url(#c5db8c4e83)"><path fill="#ffffff" d="M 156.558594 372.980469 C 148.699219 346.8125 142.664062 319.523438 138.585938 291.761719 C 157.773438 288.917969 179.941406 282.824219 204.625 273.605469 C 231.488281 263.566406 261.761719 249.726562 294.609375 232.453125 C 333.753906 211.867188 367.667969 191.007812 383.914062 180.730469 C 383.941406 180.746094 383.96875 180.765625 383.996094 180.785156 C 384.027344 180.765625 384.054688 180.746094 384.082031 180.730469 C 400.324219 191.007812 434.242188 211.867188 473.386719 232.453125 C 506.234375 249.726562 536.507812 263.566406 563.371094 273.605469 C 588.050781 282.824219 610.222656 288.917969 629.40625 291.761719 C 625.332031 319.523438 619.296875 346.8125 611.4375 372.980469 C 602.972656 401.175781 592.175781 428.789062 579.34375 455.117188 C 652.980469 375.308594 673.867188 255.859375 673.867188 255.859375 L 651.949219 255.601562 C 617.199219 255.195312 562.167969 235.710938 492.800781 199.25 C 439.09375 171.019531 395.875 142.480469 395.449219 142.191406 L 384.082031 134.664062 L 383.996094 134.722656 L 383.914062 134.664062 L 372.546875 142.191406 C 372.117188 142.480469 328.902344 171.019531 275.191406 199.25 C 205.828125 235.710938 150.796875 255.195312 116.042969 255.601562 L 94.128906 255.859375 C 94.128906 255.859375 115.015625 375.308594 188.652344 455.117188 C 175.820312 428.789062 165.027344 401.175781 156.558594 372.980469 " fill-opacity="1" fill-rule="nonzero"/></g><path fill="#ffffff" d="M 384.082031 677.816406 C 384.054688 677.796875 384.027344 677.777344 383.996094 677.757812 C 383.96875 677.777344 383.941406 677.796875 383.914062 677.816406 C 258.296875 597.320312 151.085938 435.75 130.558594 404.816406 C 137.574219 424.820312 145.546875 444.429688 154.398438 463.4375 C 178.78125 515.792969 210.203125 564.582031 247.789062 608.457031 C 281.253906 647.519531 313.546875 675.40625 334.75 691.925781 C 358.078125 710.105469 373.515625 718.96875 374.167969 719.335938 L 383.914062 724.902344 L 383.996094 724.851562 L 384.082031 724.902344 L 393.828125 719.335938 C 394.476562 718.96875 409.914062 710.105469 433.246094 691.925781 C 454.449219 675.40625 486.742188 647.519531 520.207031 608.457031 C 557.792969 564.582031 589.214844 515.792969 613.597656 463.4375 C 622.449219 444.429688 630.421875 424.820312 637.433594 404.816406 C 616.90625 435.75 509.699219 597.320312 384.082031 677.816406 " fill-opacity="1" fill-rule="nonzero"/></svg>