<svg xmlns="http://www.w3.org/2000/svg" xmlns:xlink="http://www.w3.org/1999/xlink" width="500" zoomAndPan="magnify"
     viewBox="0 0 375 112.499997" height="150" preserveAspectRatio="xMidYMid meet" version="1.0">
    <g clip-path="url(#8e1d5b2410)">
        <path fill="#ffffff"
              d="M 61.878906 57.308594 L 61.878906 66.734375 L 53.710938 62.023438 L 53.710938 52.59375 L 61.878906 57.308594 "
              fill-rule="nonzero"/>
    </g>
    <path fill="#ffffff"
          d="M 72.527344 52.59375 L 72.527344 62.023438 L 64.363281 66.734375 L 64.363281 57.308594 L 72.527344 52.59375 "
          fill-rule="nonzero"/>
    <path fill="#ffffff"
          d="M 71.285156 50.441406 L 63.121094 55.15625 L 54.953125 50.441406 L 63.121094 45.726562 L 71.285156 50.441406 "
          fill-rule="nonzero"/>
    <path fill="#ffffff"
          d="M 89.105469 57.308594 L 89.105469 66.734375 L 80.941406 62.023438 L 80.941406 52.59375 L 89.105469 57.308594 "
          fill-rule="nonzero"/>
    <g clip-path="url(#75a9e6023e)">
        <path fill="#ffffff"
              d="M 99.757812 52.59375 L 99.757812 62.023438 L 91.589844 66.734375 L 91.589844 57.308594 L 99.757812 52.59375 "
              fill-rule="nonzero"/>
    </g>
    <path fill="#ffffff"
          d="M 98.515625 50.441406 L 90.347656 55.15625 L 82.183594 50.441406 L 90.347656 45.726562 L 98.515625 50.441406 "
          fill-rule="nonzero"/>
    <path fill="#ffffff"
          d="M 75.492188 33.769531 L 75.492188 43.199219 L 67.324219 38.484375 L 67.324219 29.058594 L 75.492188 33.769531 "
          fill-rule="nonzero"/>
    <path fill="#ffffff"
          d="M 86.144531 29.058594 L 86.144531 38.484375 L 77.976562 43.199219 L 77.976562 33.769531 L 86.144531 29.058594 "
          fill-rule="nonzero"/>
    <g clip-path="url(#7f738b48ff)">
        <path fill="#ffffff"
              d="M 84.902344 26.90625 L 76.734375 31.621094 L 68.570312 26.90625 L 76.734375 22.191406 L 84.902344 26.90625 "
              fill-rule="nonzero"/>
    </g>
    <path fill="#ffffff"
          d="M 60.710938 43.46875 L 60.710938 39.378906 L 64.140625 37.394531 L 64.140625 33.789062 L 58.367188 37.121094 C 57.882812 37.402344 57.582031 37.917969 57.582031 38.476562 L 57.582031 45.269531 L 60.710938 43.46875 "
          fill-rule="nonzero"/>
    <path fill="#ffffff"
          d="M 89.332031 37.394531 L 92.761719 39.378906 L 92.761719 43.46875 L 95.882812 45.269531 L 95.882812 38.476562 C 95.882812 37.917969 95.585938 37.402344 95.105469 37.121094 L 89.332031 33.789062 L 89.332031 37.394531 "
          fill-rule="nonzero"/>
    <g clip-path="url(#12bf6a9fc9)">
        <path fill="#ffffff"
              d="M 80.050781 65.21875 L 76.734375 67.136719 L 73.417969 65.21875 L 70.292969 67.023438 L 75.953125 70.292969 C 76.195312 70.429688 76.464844 70.5 76.734375 70.5 C 77.003906 70.5 77.273438 70.429688 77.515625 70.292969 L 83.179688 67.023438 L 80.050781 65.21875 "
              fill-rule="nonzero"/>
    </g>
    <g clip-path="url(#64f969e0d7)">
        <path fill="#ffffff"
              d="M 40.902344 44.609375 C 39.664062 40.488281 38.714844 36.1875 38.074219 31.816406 C 41.09375 31.367188 44.585938 30.410156 48.472656 28.957031 C 52.703125 27.375 57.472656 25.195312 62.648438 22.476562 C 68.8125 19.234375 74.152344 15.945312 76.710938 14.328125 C 76.714844 14.332031 76.722656 14.332031 76.726562 14.335938 C 76.730469 14.332031 76.734375 14.332031 76.738281 14.328125 C 79.296875 15.945312 84.640625 19.234375 90.804688 22.476562 C 95.976562 25.195312 100.746094 27.375 104.976562 28.957031 C 108.863281 30.410156 112.355469 31.367188 115.378906 31.816406 C 114.738281 36.1875 113.785156 40.488281 112.546875 44.609375 C 111.214844 49.050781 109.515625 53.398438 107.492188 57.546875 C 119.089844 44.976562 122.378906 26.160156 122.378906 26.160156 L 118.929688 26.121094 C 113.457031 26.058594 104.789062 22.988281 93.863281 17.246094 C 85.402344 12.800781 78.597656 8.304688 78.527344 8.257812 L 76.738281 7.074219 L 76.726562 7.082031 L 76.710938 7.074219 L 74.921875 8.257812 C 74.855469 8.304688 68.046875 12.800781 59.589844 17.246094 C 48.664062 22.988281 39.996094 26.058594 34.523438 26.121094 L 31.070312 26.160156 C 31.070312 26.160156 34.359375 44.976562 45.957031 57.546875 C 43.9375 53.398438 42.238281 49.050781 40.902344 44.609375 "
              fill-rule="nonzero"/>
    </g>
    <path fill="#ffffff"
          d="M 76.738281 92.621094 C 76.734375 92.617188 76.730469 92.613281 76.726562 92.613281 C 76.722656 92.613281 76.714844 92.617188 76.710938 92.621094 C 56.925781 79.941406 40.042969 54.496094 36.808594 49.621094 C 37.914062 52.773438 39.167969 55.863281 40.5625 58.855469 C 44.402344 67.101562 49.351562 74.785156 55.273438 81.695312 C 60.542969 87.847656 65.628906 92.242188 68.96875 94.84375 C 72.644531 97.707031 75.074219 99.101562 75.175781 99.160156 L 76.710938 100.039062 L 76.726562 100.027344 L 76.738281 100.039062 L 78.273438 99.160156 C 78.375 99.101562 80.808594 97.707031 84.480469 94.84375 C 87.820312 92.242188 92.90625 87.847656 98.179688 81.695312 C 104.097656 74.785156 109.046875 67.101562 112.886719 58.855469 C 114.28125 55.863281 115.539062 52.773438 116.640625 49.621094 C 113.410156 54.496094 96.523438 79.941406 76.738281 92.621094 "
          fill-rule="nonzero"/>
    <g fill="#ffffff">
        <g transform="translate(146.560315, 47.812039)">
            <g>
                <path
                    d="M 5.082031 0.121094 C 10.980469 0.121094 10.980469 -8.714844 5.082031 -8.714844 C -0.816406 -8.714844 -0.816406 0.121094 5.082031 0.121094 Z M 5.082031 -1.65625 C 1.65625 -1.65625 1.65625 -6.953125 5.082031 -6.953125 C 8.511719 -6.953125 8.511719 -1.65625 5.082031 -1.65625 Z M 5.082031 -1.65625 "/>
            </g>
        </g>
    </g>
    <g fill="#ffffff">
        <g transform="translate(156.712879, 47.812039)">
            <g>
                <path
                    d="M 5.226562 0 L 7.167969 0 L 5.179688 -3.535156 C 7.695312 -4.269531 7.398438 -8.570312 4.339844 -8.570312 L 0.960938 -8.570312 L 0.960938 0 L 2.671875 0 L 2.671875 -3.273438 L 3.5 -3.273438 Z M 2.671875 -4.9375 L 2.671875 -6.859375 L 4.183594 -6.859375 C 5.347656 -6.859375 5.347656 -4.9375 4.183594 -4.9375 Z M 2.671875 -4.9375 "/>
            </g>
        </g>
    </g>
    <g fill="#ffffff">
        <g transform="translate(164.060603, 47.812039)">
            <g>
                <path
                    d="M 7.144531 -0.527344 L 7.144531 -4.292969 L 5.40625 -4.292969 L 5.40625 -1.714844 C 5.25 -1.691406 5.082031 -1.667969 4.925781 -1.667969 C 1.617188 -1.667969 1.460938 -6.785156 4.925781 -6.90625 C 5.839844 -6.929688 6.390625 -6.738281 6.726562 -6.59375 L 6.929688 -8.332031 C 6.773438 -8.378906 5.945312 -8.679688 4.925781 -8.644531 C -1.019531 -8.429688 -0.730469 0.046875 4.925781 0.046875 C 5.742188 0.046875 6.484375 -0.15625 7.144531 -0.527344 Z M 7.144531 -0.527344 "/>
            </g>
        </g>
    </g>
    <g fill="#ffffff">
        <g transform="translate(172.127516, 47.812039)">
            <g>
                <path
                    d="M 0.191406 0 L 2.132812 0 L 2.46875 -0.921875 L 5.3125 -0.921875 L 5.660156 0 L 7.589844 0 L 3.980469 -8.882812 L 3.800781 -8.882812 Z M 3.09375 -2.53125 L 3.894531 -4.757812 L 4.675781 -2.53125 Z M 3.09375 -2.53125 "/>
            </g>
        </g>
    </g>
    <g fill="#ffffff">
        <g transform="translate(179.954697, 47.812039)">
            <g>
                <path
                    d="M 2.671875 -4.664062 L 7.011719 0.179688 L 7.46875 0.179688 L 7.46875 -8.558594 L 5.742188 -8.558594 L 5.742188 -3.714844 L 1.414062 -8.75 L 0.960938 -8.75 L 0.960938 0 L 2.671875 0 Z M 2.671875 -4.664062 "/>
            </g>
        </g>
    </g>
    <g fill="#ffffff">
        <g transform="translate(188.39319, 47.812039)">
            <g>
                <path d="M 2.671875 0 L 2.671875 -8.570312 L 0.960938 -8.570312 L 0.960938 0 Z M 2.671875 0 "/>
            </g>
        </g>
    </g>
    <g fill="#ffffff">
        <g transform="translate(192.037084, 47.812039)">
            <g>
                <path
                    d="M 0.5625 -0.550781 C 1.726562 0.046875 2.792969 0.109375 3.273438 0.0703125 C 4.878906 -0.0117188 5.863281 -1.101562 5.863281 -2.53125 C 5.863281 -3.894531 4.710938 -4.664062 3.378906 -5.15625 C 2.890625 -5.324219 2.46875 -5.539062 2.421875 -6.019531 C 2.386719 -6.496094 2.660156 -6.941406 3.273438 -6.976562 C 3.535156 -6.988281 4.078125 -7 5.023438 -6.617188 L 5.238281 -8.273438 C 4.136719 -8.65625 3.546875 -8.65625 3.105469 -8.632812 C 1.679688 -8.558594 0.683594 -7.457031 0.683594 -6.019531 C 0.683594 -4.578125 1.882812 -3.894531 3.226562 -3.40625 C 3.703125 -3.238281 4.078125 -3.019531 4.113281 -2.53125 C 4.160156 -2.0625 3.730469 -1.703125 3.226562 -1.667969 C 2.828125 -1.628906 1.761719 -1.65625 0.777344 -2.351562 Z M 0.5625 -0.550781 "/>
            </g>
        </g>
    </g>
    <g fill="#ffffff">
        <g transform="translate(198.37794, 47.812039)">
            <g>
                <path
                    d="M 4.890625 -4.9375 L 1.511719 -8.703125 L 0.960938 -8.703125 L 0.960938 0 L 2.699219 0 L 2.699219 -4.785156 L 4.890625 -2.480469 L 7.085938 -4.785156 L 7.074219 0 L 8.8125 0 L 8.8125 -8.703125 L 8.273438 -8.703125 Z M 4.890625 -4.9375 "/>
            </g>
        </g>
    </g>
    <g fill="#ffffff">
        <g transform="translate(208.15892, 47.812039)">
            <g>
                <path
                    d="M 5.394531 0 L 5.394531 -1.714844 L 2.671875 -1.714844 L 2.671875 -3.429688 L 4.925781 -3.429688 L 4.925781 -5.144531 L 2.671875 -5.144531 L 2.671875 -6.859375 L 5.25 -6.859375 L 5.25 -8.570312 L 0.960938 -8.570312 L 0.960938 0 Z M 5.394531 0 "/>
            </g>
        </g>
    </g>
    <g fill="#ffffff">
        <g transform="translate(214.200113, 47.812039)">
            <g/>
        </g>
    </g>
    <g fill="#ffffff">
        <g transform="translate(217.60428, 47.812039)">
            <g>
                <path
                    d="M 3.511719 -8.570312 L 0.960938 -8.570312 L 0.960938 0 L 3.511719 0 C 9.21875 0 9.21875 -8.570312 3.511719 -8.570312 Z M 3.511719 -6.859375 C 6.84375 -6.859375 6.84375 -1.714844 3.511719 -1.714844 L 2.671875 -1.714844 L 2.671875 -6.859375 Z M 3.511719 -6.859375 "/>
            </g>
        </g>
    </g>
    <g fill="#ffffff">
        <g transform="translate(226.042773, 47.812039)">
            <g>
                <path
                    d="M 5.394531 0 L 5.394531 -1.714844 L 2.671875 -1.714844 L 2.671875 -3.429688 L 4.925781 -3.429688 L 4.925781 -5.144531 L 2.671875 -5.144531 L 2.671875 -6.859375 L 5.25 -6.859375 L 5.25 -8.570312 L 0.960938 -8.570312 L 0.960938 0 Z M 5.394531 0 "/>
            </g>
        </g>
    </g>
    <g fill="#ffffff">
        <g transform="translate(232.083966, 47.812039)">
            <g/>
        </g>
    </g>
    <g fill="#ffffff">
        <g transform="translate(235.488128, 47.812039)">
            <g>
                <path
                    d="M 3.511719 -8.570312 L 0.960938 -8.570312 L 0.960938 0 L 3.511719 0 C 9.21875 0 9.21875 -8.570312 3.511719 -8.570312 Z M 3.511719 -6.859375 C 6.84375 -6.859375 6.84375 -1.714844 3.511719 -1.714844 L 2.671875 -1.714844 L 2.671875 -6.859375 Z M 3.511719 -6.859375 "/>
            </g>
        </g>
    </g>
    <g fill="#ffffff">
        <g transform="translate(243.926617, 47.812039)">
            <g>
                <path
                    d="M 4.953125 -10.539062 L 2.839844 -10.539062 L 2.253906 -9.160156 L 3.800781 -9.160156 Z M 5.394531 0 L 5.394531 -1.714844 L 2.671875 -1.714844 L 2.671875 -3.429688 L 4.925781 -3.429688 L 4.925781 -5.144531 L 2.671875 -5.144531 L 2.671875 -6.859375 L 5.25 -6.859375 L 5.25 -8.570312 L 0.960938 -8.570312 L 0.960938 0 Z M 5.394531 0 "/>
            </g>
        </g>
    </g>
    <g fill="#ffffff">
        <g transform="translate(249.96781, 47.812039)">
            <g>
                <path
                    d="M 6.414062 -6.582031 L 6.617188 -8.34375 C 6.101562 -8.570312 5.527344 -8.679688 4.925781 -8.679688 C -0.875 -8.679688 -0.886719 0.0234375 4.925781 0.0234375 C 5.527344 0.0234375 6.28125 -0.121094 6.808594 -0.335938 L 6.582031 -2.109375 C 6.257812 -1.941406 5.671875 -1.726562 4.925781 -1.726562 C 1.535156 -1.726562 1.535156 -6.953125 4.925781 -6.953125 C 5.671875 -6.953125 6.089844 -6.75 6.414062 -6.582031 Z M 6.414062 -6.582031 "/>
            </g>
        </g>
    </g>
    <g fill="#ffffff">
        <g transform="translate(257.183675, 47.812039)">
            <g>
                <path
                    d="M 5.394531 0 L 5.394531 -1.714844 L 2.671875 -1.714844 L 2.671875 -3.429688 L 4.925781 -3.429688 L 4.925781 -5.144531 L 2.671875 -5.144531 L 2.671875 -6.859375 L 5.25 -6.859375 L 5.25 -8.570312 L 0.960938 -8.570312 L 0.960938 0 Z M 5.394531 0 "/>
            </g>
        </g>
    </g>
    <g fill="#ffffff">
        <g transform="translate(263.224868, 47.812039)">
            <g>
                <path
                    d="M 2.671875 -4.664062 L 7.011719 0.179688 L 7.46875 0.179688 L 7.46875 -8.558594 L 5.742188 -8.558594 L 5.742188 -3.714844 L 1.414062 -8.75 L 0.960938 -8.75 L 0.960938 0 L 2.671875 0 Z M 2.671875 -4.664062 "/>
            </g>
        </g>
    </g>
    <g fill="#ffffff">
        <g transform="translate(271.663366, 47.812039)">
            <g>
                <path
                    d="M 4.089844 0 L 4.089844 -6.859375 L 6.222656 -6.859375 L 6.222656 -8.558594 L 0.238281 -8.558594 L 0.238281 -6.859375 L 2.375 -6.859375 L 2.375 0 Z M 4.089844 0 "/>
            </g>
        </g>
    </g>
    <g fill="#ffffff">
        <g transform="translate(278.219974, 47.812039)">
            <g>
                <path
                    d="M 5.226562 0 L 7.167969 0 L 5.179688 -3.535156 C 7.695312 -4.269531 7.398438 -8.570312 4.339844 -8.570312 L 0.960938 -8.570312 L 0.960938 0 L 2.671875 0 L 2.671875 -3.273438 L 3.5 -3.273438 Z M 2.671875 -4.9375 L 2.671875 -6.859375 L 4.183594 -6.859375 C 5.347656 -6.859375 5.347656 -4.9375 4.183594 -4.9375 Z M 2.671875 -4.9375 "/>
            </g>
        </g>
    </g>
    <g fill="#ffffff">
        <g transform="translate(285.567702, 47.812039)">
            <g>
                <path
                    d="M 0.191406 0 L 2.132812 0 L 2.46875 -0.921875 L 5.3125 -0.921875 L 5.660156 0 L 7.589844 0 L 3.980469 -8.882812 L 3.800781 -8.882812 Z M 3.09375 -2.53125 L 3.894531 -4.757812 L 4.675781 -2.53125 Z M 3.09375 -2.53125 "/>
            </g>
        </g>
    </g>
    <g fill="#ffffff">
        <g transform="translate(293.394883, 47.812039)">
            <g>
                <path
                    d="M 0.960938 -8.570312 L 0.960938 0 L 5.394531 0 L 5.394531 -1.714844 L 2.671875 -1.714844 L 2.671875 -8.570312 Z M 0.960938 -8.570312 "/>
            </g>
        </g>
    </g>
    <g fill="#ffffff">
        <g transform="translate(299.304233, 47.812039)">
            <g>
                <path d="M 2.671875 0 L 2.671875 -8.570312 L 0.960938 -8.570312 L 0.960938 0 Z M 2.671875 0 "/>
            </g>
        </g>
    </g>
    <g fill="#ffffff">
        <g transform="translate(302.948131, 47.812039)">
            <g>
                <path
                    d="M 0.5625 -0.550781 C 1.726562 0.046875 2.792969 0.109375 3.273438 0.0703125 C 4.878906 -0.0117188 5.863281 -1.101562 5.863281 -2.53125 C 5.863281 -3.894531 4.710938 -4.664062 3.378906 -5.15625 C 2.890625 -5.324219 2.46875 -5.539062 2.421875 -6.019531 C 2.386719 -6.496094 2.660156 -6.941406 3.273438 -6.976562 C 3.535156 -6.988281 4.078125 -7 5.023438 -6.617188 L 5.238281 -8.273438 C 4.136719 -8.65625 3.546875 -8.65625 3.105469 -8.632812 C 1.679688 -8.558594 0.683594 -7.457031 0.683594 -6.019531 C 0.683594 -4.578125 1.882812 -3.894531 3.226562 -3.40625 C 3.703125 -3.238281 4.078125 -3.019531 4.113281 -2.53125 C 4.160156 -2.0625 3.730469 -1.703125 3.226562 -1.667969 C 2.828125 -1.628906 1.761719 -1.65625 0.777344 -2.351562 Z M 0.5625 -0.550781 "/>
            </g>
        </g>
    </g>
    <g fill="#ffffff">
        <g transform="translate(309.288992, 47.812039)">
            <g>
                <path
                    d="M 0.191406 0 L 2.132812 0 L 2.46875 -0.921875 L 5.3125 -0.921875 L 5.660156 0 L 7.589844 0 L 3.980469 -8.882812 L 3.800781 -8.882812 Z M 3.09375 -2.53125 L 3.894531 -4.757812 L 4.675781 -2.53125 Z M 3.09375 -2.53125 "/>
            </g>
        </g>
    </g>
    <g fill="#ffffff">
        <g transform="translate(317.116174, 47.812039)">
            <g>
                <path
                    d="M 4.089844 0 L 4.089844 -6.859375 L 6.222656 -6.859375 L 6.222656 -8.558594 L 0.238281 -8.558594 L 0.238281 -6.859375 L 2.375 -6.859375 L 2.375 0 Z M 4.089844 0 "/>
            </g>
        </g>
    </g>
    <g fill="#ffffff">
        <g transform="translate(323.672781, 47.812039)">
            <g>
                <path d="M 2.671875 0 L 2.671875 -8.570312 L 0.960938 -8.570312 L 0.960938 0 Z M 2.671875 0 "/>
            </g>
        </g>
    </g>
    <g fill="#ffffff">
        <g transform="translate(327.31668, 47.812039)">
            <g>
                <path
                    d="M 5.082031 0.121094 C 10.980469 0.121094 10.980469 -8.714844 5.082031 -8.714844 C -0.816406 -8.714844 -0.816406 0.121094 5.082031 0.121094 Z M 5.082031 -1.65625 C 1.65625 -1.65625 1.65625 -6.953125 5.082031 -6.953125 C 8.511719 -6.953125 8.511719 -1.65625 5.082031 -1.65625 Z M 5.082031 -1.65625 "/>
            </g>
        </g>
    </g>
    <g fill="#ffffff">
        <g transform="translate(337.469244, 47.812039)">
            <g>
                <path
                    d="M 2.671875 -4.664062 L 7.011719 0.179688 L 7.46875 0.179688 L 7.46875 -8.558594 L 5.742188 -8.558594 L 5.742188 -3.714844 L 1.414062 -8.75 L 0.960938 -8.75 L 0.960938 0 L 2.671875 0 Z M 2.671875 -4.664062 "/>
            </g>
        </g>
    </g>
    <g fill="#ffffff">
        <g transform="translate(345.910901, 47.812039)">
            <g/>
        </g>
    </g>
    <g fill="#ffffff">
        <g transform="translate(146.540888, 64.597003)">
            <g>
                <path
                    d="M 4.890625 -4.9375 L 1.511719 -8.703125 L 0.960938 -8.703125 L 0.960938 0 L 2.699219 0 L 2.699219 -4.785156 L 4.890625 -2.480469 L 7.085938 -4.785156 L 7.074219 0 L 8.8125 0 L 8.8125 -8.703125 L 8.273438 -8.703125 Z M 4.890625 -4.9375 "/>
            </g>
        </g>
    </g>
    <g fill="#ffffff">
        <g transform="translate(156.321867, 64.597003)">
            <g>
                <path
                    d="M 5.082031 0.121094 C 10.980469 0.121094 10.980469 -8.714844 5.082031 -8.714844 C -0.816406 -8.714844 -0.816406 0.121094 5.082031 0.121094 Z M 5.082031 -1.65625 C 1.65625 -1.65625 1.65625 -6.953125 5.082031 -6.953125 C 8.511719 -6.953125 8.511719 -1.65625 5.082031 -1.65625 Z M 5.082031 -1.65625 "/>
            </g>
        </g>
    </g>
    <g fill="#ffffff">
        <g transform="translate(166.474432, 64.597003)">
            <g>
                <path
                    d="M 2.671875 -4.664062 L 7.011719 0.179688 L 7.46875 0.179688 L 7.46875 -8.558594 L 5.742188 -8.558594 L 5.742188 -3.714844 L 1.414062 -8.75 L 0.960938 -8.75 L 0.960938 0 L 2.671875 0 Z M 2.671875 -4.664062 "/>
            </g>
        </g>
    </g>
    <g fill="#ffffff">
        <g transform="translate(174.912925, 64.597003)">
            <g>
                <path
                    d="M 3.511719 -8.570312 L 0.960938 -8.570312 L 0.960938 0 L 3.511719 0 C 9.21875 0 9.21875 -8.570312 3.511719 -8.570312 Z M 3.511719 -6.859375 C 6.84375 -6.859375 6.84375 -1.714844 3.511719 -1.714844 L 2.671875 -1.714844 L 2.671875 -6.859375 Z M 3.511719 -6.859375 "/>
            </g>
        </g>
    </g>
    <g fill="#ffffff">
        <g transform="translate(183.351418, 64.597003)">
            <g>
                <path d="M 2.671875 0 L 2.671875 -8.570312 L 0.960938 -8.570312 L 0.960938 0 Z M 2.671875 0 "/>
            </g>
        </g>
    </g>
    <g fill="#ffffff">
        <g transform="translate(186.995312, 64.597003)">
            <g>
                <path
                    d="M 0.191406 0 L 2.132812 0 L 2.46875 -0.921875 L 5.3125 -0.921875 L 5.660156 0 L 7.589844 0 L 3.980469 -8.882812 L 3.800781 -8.882812 Z M 3.09375 -2.53125 L 3.894531 -4.757812 L 4.675781 -2.53125 Z M 3.09375 -2.53125 "/>
            </g>
        </g>
    </g>
    <g fill="#ffffff">
        <g transform="translate(194.822493, 64.597003)">
            <g>
                <path
                    d="M 0.960938 -8.570312 L 0.960938 0 L 5.394531 0 L 5.394531 -1.714844 L 2.671875 -1.714844 L 2.671875 -8.570312 Z M 0.960938 -8.570312 "/>
            </g>
        </g>
    </g>
    <g fill="#ffffff">
        <g transform="translate(200.731837, 64.597003)">
            <g>
                <path
                    d="M 5.394531 0 L 5.394531 -1.714844 L 2.671875 -1.714844 L 2.671875 -3.429688 L 4.925781 -3.429688 L 4.925781 -5.144531 L 2.671875 -5.144531 L 2.671875 -6.859375 L 5.25 -6.859375 L 5.25 -8.570312 L 0.960938 -8.570312 L 0.960938 0 Z M 5.394531 0 "/>
            </g>
        </g>
    </g>
</svg>
